<?xml version="1.0" encoding="UTF-8"?>
<svg width="87px" height="14px" viewBox="0 0 87 14" version="1.1" xmlns="http://www.w3.org/2000/svg" xmlns:xlink="http://www.w3.org/1999/xlink">
    <title>Brixen Logo</title>
    <g id="-" stroke="none" stroke-width="1" fill="none" fill-rule="evenodd">
        <g id="Exhale–-Registration-Page-C-v1.0.3" transform="translate(-942.000000, -1955.000000)" fill="#122C40">
            <g id="Register-Today-Form" transform="translate(875.000000, 1152.000000)">
                <g id="Group-2" transform="translate(67.000000, 802.000000)">
                    <path d="M9.50713825,10.780442 C9.50713825,9.74893909 8.6986154,8.92254555 7.70464165,8.92254555 L2.40583973,8.92254555 L2.40583973,12.6506227 L7.70464165,12.6506227 C8.6986154,12.6506227 9.50713825,11.8119449 9.50713825,10.780442 M7.29428223,3.35518437 L2.40583973,3.35518437 L2.40583973,6.65778054 L7.29428223,6.65778054 C8.17920941,6.65778054 8.89913193,5.93896706 8.89913193,5.02062793 C8.89913193,4.1022888 8.17920941,3.35518437 7.29428223,3.35518437 M12.0058828,11.0011859 C12.0058828,13.209369 10.2808666,14.9995161 8.15302389,14.9995161 L0,14.9995161 L0,1.00033502 L7.78750269,1.00033502 C9.81311428,1.00033502 11.4552694,2.70449252 11.4552694,4.80621231 C11.4552694,6.26096274 10.4139465,7.27496995 9.86118086,7.63865756 C10.6019083,7.99676143 12.0058828,9.10829797 12.0058828,11.0011859 M25.9869431,5.84341065 C25.9869431,4.54947194 24.9524356,3.4967508 23.6811823,3.4967508 L19.1507282,3.4967508 L19.1507282,8.19007051 L23.6811823,8.19007051 C24.9524356,8.19007051 25.9869431,7.13734937 25.9869431,5.84341065 L25.9869431,5.84341065 Z M29.2658727,15 L26.3352464,15 L23.2216802,10.6867469 L19.1507282,10.6867469 L19.1507282,15 L16.6695602,15 L16.6695602,1.00007445 L23.7579453,1.00007445 C26.3549752,1.00007445 28.4677523,3.17289387 28.4677523,5.84341065 C28.4677523,7.76012252 27.379439,9.42035459 25.8047206,10.204684 L29.2658727,15 Z M33.6483966,14.9991811 L36.1292058,14.9991811 L36.1292058,1 L33.6483966,1 L33.6483966,14.9991811 Z M49.7690652,6.57100922 L48.2876103,4.57910299 L50.949566,1.0002978 L53.9128345,1.0002978 L49.7690652,6.57100922 Z M54.0129134,14.9998511 L51.0496449,14.9998511 L47.2746252,9.92460355 L43.4992467,14.9998511 L40.5363369,14.9998511 L45.7928115,7.93269732 L40.6364158,1.0002978 L43.5996843,1.0002978 L54.0129134,14.9998511 Z M60.9603989,3.41872733 L60.9603989,6.79093413 L67.8873664,6.79093413 L67.8873664,9.20943812 L60.9603989,9.20943812 L60.9603989,12.5812727 L69.3376139,12.5812727 L69.3376139,14.9997767 L58.4795896,14.9997767 L58.4795896,1.00022335 L69.3376139,1.00022335 L69.3376139,3.41872733 L60.9603989,3.41872733 Z M86.724514,11.6858269 L84.2437047,8.47889878 L84.2437047,1.00003722 L86.724514,1.00003722 L86.724514,11.6858269 Z M87,14.9999628 L84.1077552,14.9999628 L76.9361504,5.72946513 L76.9361504,14.9999628 L74.4549824,14.9999628 L74.4549824,1.00003722 L76.1695961,1.00003722 L87,14.9999628 Z" id="Brixen-Logo"></path>
                </g>
            </g>
        </g>
    </g>
</svg>